<svg width="15" height="15" fill="none" xmlns="http://www.w3.org/2000/svg"><path d="M10.578 7.682a3.253 3.253 0 11-6.506 0 3.253 3.253 0 016.506 0zm-5.762 3.36a4.245 4.245 0 01-.86-.878l-1.65 2.139.186.23.213.199 2.111-1.69zm1.97.82l.327 2.679.248.009.275-.009.338-2.682a4.267 4.267 0 01-1.188.003zm3.124-.81l2.11 1.65.182-.169.188-.2-1.645-2.118a4.245 4.245 0 01-.835.837zm1.639-2.777l2.6-.29.078-.301-.12-.305-2.564-.33a4.252 4.252 0 01.006 1.226zm-.819-3.146l1.63-2.037-.158-.269-.301-.13-2.045 1.578c.331.242.626.531.875.858zM7.947 3.5L7.605.836 7.362.818l-.238.018-.335 2.665a4.259 4.259 0 011.158 0zm-3.128.819L2.677 2.664l-.184.16-.156.18 1.661 2.138c.235-.31.511-.588.821-.823zM3.197 7.046l-2.67.344-.032.294.011.291 2.684.298a4.257 4.257 0 01.007-1.227z" fill="#A9A9A9"/></svg>