<svg width="14" height="14" fill="none" xmlns="http://www.w3.org/2000/svg"><path d="M.375.204h9.582l3.24 3.326v9.497H.375V.204z" fill="#444"/><path d="M5.086 6.647h-.695a.603.603 0 00-.057-.193.47.47 0 00-.282-.24.644.644 0 00-.213-.034.623.623 0 00-.357.101.647.647 0 00-.23.294 1.21 1.21 0 00-.08.464c0 .19.028.348.082.476a.633.633 0 00.229.287c.1.064.216.096.352.096a.69.69 0 00.207-.029.469.469 0 00.284-.222.562.562 0 00.065-.185l.695.004c-.012.126-.049.25-.11.373a1.176 1.176 0 01-.635.574c-.151.06-.325.089-.52.089-.258 0-.489-.057-.693-.17a1.221 1.221 0 01-.48-.498 1.653 1.653 0 01-.177-.795c0-.313.06-.579.18-.796a1.22 1.22 0 01.484-.497 1.39 1.39 0 01.686-.17c.172 0 .332.025.478.073a1.081 1.081 0 01.657.543c.07.133.113.285.13.455zm1.04-1.032l.637 2.086h.024l.637-2.086h.77l-.96 2.848h-.917l-.96-2.848h.77zm3.913.854a.323.323 0 00-.123-.238.488.488 0 00-.31-.086.616.616 0 00-.223.035.29.29 0 00-.133.096.232.232 0 00-.046.138.204.204 0 00.025.112c.02.033.047.061.083.086a.64.64 0 00.134.064c.052.019.11.035.175.049l.245.056c.14.03.265.07.372.122.109.05.2.112.273.182.074.07.13.152.168.243a.819.819 0 01.059.309.797.797 0 01-.137.463.846.846 0 01-.388.296c-.167.069-.37.103-.607.103a1.66 1.66 0 01-.623-.107.88.88 0 01-.413-.325.989.989 0 01-.152-.552h.66c.005.091.03.168.073.23a.404.404 0 00.18.138.7.7 0 00.266.047.659.659 0 00.237-.037.343.343 0 00.151-.104.246.246 0 00.055-.153.21.21 0 00-.05-.138.379.379 0 00-.15-.1 1.54 1.54 0 00-.257-.08l-.297-.069a1.298 1.298 0 01-.583-.274.652.652 0 01-.21-.514.76.76 0 01.14-.463.942.942 0 01.397-.31 1.42 1.42 0 01.577-.111c.22 0 .412.037.574.112a.828.828 0 01.517.78h-.659z" fill="#000"/></svg>