<svg width="17" height="17" fill="none" xmlns="http://www.w3.org/2000/svg"><path d="M7.562 2.507c.099-.489.797-.489.896 0a.457.457 0 00.85.128c.24-.438.907-.232.857.264a.457.457 0 00.775.373c.357-.348.934.046.74.506a.457.457 0 00.63.584c.445-.227.88.32.56.701a.457.457 0 00.43.745c.49-.087.746.564.327.834a.458.458 0 00.192.839c.494.062.547.758.067.894a.457.457 0 00-.065.857c.455.205.3.886-.2.874a.457.457 0 00-.313.8c.374.33.024.936-.449.777a.457.457 0 00-.536.672c.26.426-.252.901-.657.61a.457.457 0 00-.71.484c.123.484-.507.787-.808.39a.457.457 0 00-.821.253c-.026.498-.716.602-.887.133a.457.457 0 00-.86 0c-.17.469-.861.365-.887-.133a.457.457 0 00-.82-.254c-.302.398-.932.095-.809-.389a.457.457 0 00-.71-.484c-.405.291-.917-.184-.657-.61a.457.457 0 00-.536-.672c-.473.159-.823-.446-.449-.777a.457.457 0 00-.314-.8c-.498.012-.654-.669-.2-.874a.457.457 0 00-.064-.857c-.48-.136-.427-.832.067-.894a.457.457 0 00.192-.839c-.42-.27-.164-.92.327-.834a.457.457 0 00.43-.745c-.32-.382.115-.928.56-.7a.457.457 0 00.63-.586c-.194-.46.383-.853.74-.505a.457.457 0 00.775-.373c-.05-.496.618-.702.857-.264.204.375.765.29.85-.128z" fill="#0055F6"/><path d="M5.736 7.772l1.911 1.911 3.12-3.118" stroke="#fff" stroke-width="2"/></svg>