<svg width="17" height="15" fill="none" xmlns="http://www.w3.org/2000/svg"><path d="M16.08 8.87v5.603h-3.258V9.255c0-1.31-.462-2.21-1.642-2.21-.897 0-1.436.617-1.667 1.182-.077.206-.102.489-.102.797v5.475H6.153s.052-8.868 0-9.793h3.258v1.388l-.026.026h.026v-.026c.436-.668 1.205-1.62 2.924-1.62 2.128 0 3.744 1.389 3.744 4.396zM2.767.002C1.665.002.92.722.92 1.7c0 .95.718 1.696 1.795 1.696h.026c1.129 0 1.847-.745 1.847-1.696C4.563.722 3.896.002 2.768.002zM1.126 14.498h3.232V4.707H1.126V14.5z" fill="#fff" fill-opacity=".48"/></svg>