<svg width="238" height="35" fill="none" xmlns="http://www.w3.org/2000/svg"><path d="M21.325 4.915v26.063H17.06v-11.17H5.19v11.17H.926V4.915h4.263v10.76h11.872V4.915h4.264zm34.253 0h10.036c2.449 0 4.624.546 6.526 1.638 1.903 1.067 3.379 2.594 4.428 4.58 1.05 1.96 1.574 4.232 1.574 6.813 0 2.582-.524 4.865-1.574 6.851-1.05 1.961-2.525 3.488-4.427 4.58-1.903 1.067-4.078 1.601-6.527 1.601H55.578V4.915zm9.84 21.967c1.683 0 3.159-.36 4.427-1.08a7.378 7.378 0 002.951-3.127c.7-1.365 1.05-2.941 1.05-4.729 0-1.787-.35-3.35-1.05-4.691-.677-1.365-1.661-2.408-2.951-3.128-1.268-.744-2.744-1.117-4.428-1.117h-5.575v17.872h5.575zm32.276 4.096l-4.69-7.633a7.716 7.716 0 01-.885.037h-5.182v7.596h-4.263V4.915h9.445c1.99 0 3.717.372 5.182 1.117 1.486.744 2.623 1.812 3.411 3.202.787 1.39 1.18 3.04 1.18 4.952 0 1.96-.426 3.649-1.279 5.064-.83 1.414-2.033 2.47-3.607 3.164l5.28 8.564h-4.592zm-.098-16.792c0-1.663-.481-2.942-1.443-3.835-.962-.894-2.372-1.34-4.23-1.34h-4.986v10.387h4.985c1.859 0 3.269-.446 4.23-1.34.963-.918 1.444-2.21 1.444-3.872zm23.956 10.76h-11.479l-2.263 6.032h-4.395l10.331-26.063h4.198l10.364 26.063h-4.461l-2.295-6.032zm-1.411-3.798l-4.329-11.393-4.296 11.393h8.625zm14.59-12.138h-7.608V4.915h19.48V9.01h-7.608v21.968h-4.264V9.01zm20.049 0h-7.608V4.915h19.481V9.01h-7.609v21.968h-4.264V9.01zm28.809 15.936H172.11l-2.263 6.032h-4.395l10.331-26.063h4.198l10.364 26.063h-4.461l-2.295-6.032zm-1.411-3.798l-4.329-11.393-4.296 11.393h8.625zM203.57 31.35c-2.318 0-4.417-.57-6.297-1.712-1.858-1.167-3.323-2.768-4.395-4.804-1.049-2.035-1.574-4.33-1.574-6.888 0-2.556.536-4.852 1.607-6.888 1.072-2.035 2.536-3.624 4.395-4.766 1.88-1.166 3.979-1.75 6.297-1.75 1.88 0 3.596.373 5.149 1.117 1.552.745 2.864 1.825 3.935 3.24l-2.755 2.941c-1.661-2.035-3.706-3.053-6.133-3.053-1.574 0-2.984.397-4.23 1.192-1.246.769-2.219 1.849-2.919 3.239-.7 1.39-1.05 2.966-1.05 4.728 0 1.763.35 3.339 1.05 4.729.7 1.39 1.673 2.482 2.919 3.276 1.246.77 2.656 1.155 4.23 1.155 2.427 0 4.472-1.03 6.133-3.09l2.755 2.978a10.603 10.603 0 01-3.968 3.24c-1.552.744-3.269 1.116-5.149 1.116zm21.106-11.281l-3.64 4.244v6.665h-4.264V4.915h4.264v13.367l11.347-13.367h4.788l-9.642 11.654 10.233 14.409h-4.985l-8.101-10.91zM38.272 33.695L33.88 17.584l4.392 3.002 4.373-2.867-4.373 15.976zM23.518 4.269l14.486 3.737-4.485 2.818v5.733l-10-12.288zm29.472.026L42.896 16.668l.094-5.819-4.374-2.865 14.374-3.69z" fill="#fff" fill-opacity=".5"/></svg>