<svg width="126" height="14" fill="none" xmlns="http://www.w3.org/2000/svg"><path d="M.93 12.907V.896h3.574c.827 0 1.505.16 2.035.48.53.317.923.753 1.178 1.308.255.555.383 1.187.383 1.895 0 .707-.128 1.335-.383 1.882a2.889 2.889 0 01-1.172 1.29c-.527.31-1.2.464-2.02.464H1.632V6.9h2.851c.565 0 1.02-.094 1.364-.281.348-.188.6-.454.754-.798.159-.348.238-.762.238-1.243 0-.481-.08-.902-.238-1.261a1.737 1.737 0 00-.759-.833c-.348-.2-.808-.3-1.38-.3H2.21v10.722H.93zM5.91 7.51l2.603 5.396H7.025L4.463 7.51h1.446zm7.546 5.584c-.764 0-1.424-.191-1.978-.574-.551-.387-.977-.927-1.276-1.62-.297-.695-.445-1.504-.445-2.427s.148-1.736.445-2.44c.3-.708.716-1.259 1.25-1.654.537-.399 1.164-.598 1.88-.598.413 0 .821.078 1.224.235.403.156.77.41 1.1.762.331.348.595.81.791 1.384.197.575.295 1.283.295 2.123v.587h-6.117V7.675h4.877c0-.508-.09-.962-.269-1.36a2.22 2.22 0 00-.754-.945 1.924 1.924 0 00-1.147-.346c-.486 0-.906.137-1.26.41-.352.27-.622.623-.811 1.057a3.44 3.44 0 00-.284 1.395v.798c0 .68.103 1.257.31 1.73.21.47.5.827.872 1.073a2.32 2.32 0 001.297.364c.32 0 .61-.05.868-.153.262-.105.487-.261.677-.469.19-.21.335-.473.439-.785l1.178.375a3.071 3.071 0 01-.625 1.196 3.04 3.04 0 01-1.085.798c-.43.188-.915.281-1.452.281zm11.533-9.196l-2.935 9.009h-1.24L17.88 3.898h1.323l2.19 7.179h.083l2.19-7.179h1.323zm4.797 9.196c-.765 0-1.424-.191-1.979-.574-.55-.387-.976-.927-1.275-1.62-.297-.695-.445-1.504-.445-2.427s.148-1.736.445-2.44c.3-.708.716-1.259 1.25-1.654.537-.399 1.164-.598 1.88-.598.413 0 .821.078 1.224.235.403.156.77.41 1.1.762.331.348.595.81.791 1.384.196.575.295 1.283.295 2.123v.587h-6.117V7.675h4.877c0-.508-.09-.962-.269-1.36a2.22 2.22 0 00-.754-.945 1.925 1.925 0 00-1.147-.346c-.486 0-.906.137-1.26.41-.352.27-.622.623-.812 1.057a3.456 3.456 0 00-.284 1.395v.798c0 .68.104 1.257.31 1.73.21.47.501.827.873 1.073a2.32 2.32 0 001.297.364c.32 0 .61-.05.868-.153.262-.105.487-.261.677-.469.19-.21.335-.473.439-.785l1.178.375a3.071 3.071 0 01-.626 1.196 3.04 3.04 0 01-1.084.798c-.43.188-.915.281-1.452.281zm7.621.024c-.503 0-.96-.108-1.37-.323a2.459 2.459 0 01-.976-.944c-.24-.414-.361-.915-.361-1.501 0-.516.09-.935.268-1.255.18-.325.419-.58.718-.763.3-.184.63-.32.992-.41.365-.094.732-.169 1.1-.223.483-.07.874-.123 1.173-.159.303-.039.524-.103.661-.193.142-.09.212-.246.212-.47v-.046c0-.579-.14-1.029-.418-1.35-.276-.32-.694-.48-1.255-.48-.583 0-1.039.145-1.37.434-.33.29-.563.598-.697.927l-1.157-.47c.207-.547.482-.973.827-1.278a2.972 2.972 0 011.136-.645 4.2 4.2 0 011.22-.188c.254 0 .547.035.877.106.334.066.657.205.966.416.314.211.574.53.78.956.207.426.31.997.31 1.712v5.936h-1.219v-1.22h-.062a2.443 2.443 0 01-1.183 1.196c-.32.157-.71.235-1.172.235zm.186-1.244c.482 0 .888-.107 1.219-.322.334-.215.585-.493.754-.833.172-.34.258-.698.258-1.073V8.379c-.051.07-.165.135-.34.194a5.164 5.164 0 01-.6.146 24.254 24.254 0 01-1.167.176 4.193 4.193 0 00-.889.229 1.517 1.517 0 00-.661.463c-.166.204-.248.481-.248.833 0 .48.157.845.47 1.09.317.243.718.364 1.204.364zM44.633.896v12.01h-1.219V.897h1.22zm9.612 12.198c-.661 0-1.245-.19-1.751-.569-.507-.383-.903-.922-1.188-1.618-.286-.7-.43-1.527-.43-2.481 0-.946.144-1.767.43-2.463.285-.696.683-1.234 1.193-1.613a2.88 2.88 0 011.767-.569c.516 0 .924.098 1.224.293a2.2 2.2 0 01.692.657c.162.243.288.442.377.598h.104V.896h1.219v12.01h-1.178v-1.383h-.145a9 9 0 01-.382.621 2.364 2.364 0 01-.708.663c-.306.192-.714.287-1.224.287zm.165-1.243c.49 0 .903-.145 1.24-.434.337-.293.594-.698.77-1.214.175-.52.263-1.12.263-1.8 0-.673-.086-1.261-.258-1.766-.172-.508-.427-.903-.765-1.185-.337-.285-.754-.428-1.25-.428-.516 0-.947.15-1.291.452-.341.297-.598.702-.77 1.214a5.416 5.416 0 00-.253 1.713c0 .64.086 1.223.258 1.747.176.52.434.935.775 1.244.344.304.772.457 1.281.457zm6.02 1.056V3.898h1.177v1.36h.083a2.13 2.13 0 01.785-1.084 2.114 2.114 0 011.281-.416c.09 0 .202.002.336.005.134.004.236.01.305.018v1.408a3.235 3.235 0 00-.284-.053 2.47 2.47 0 00-.46-.041c-.386 0-.73.092-1.033.275-.3.18-.538.43-.713.751a2.235 2.235 0 00-.258 1.085v5.7h-1.22zm7.892.211c-.502 0-.959-.108-1.369-.323a2.459 2.459 0 01-.976-.944c-.241-.414-.362-.915-.362-1.501 0-.516.09-.935.27-1.255.178-.325.417-.58.717-.763.3-.184.63-.32.992-.41a10.78 10.78 0 011.1-.223c.483-.07.873-.123 1.173-.159.303-.039.523-.103.661-.193.141-.09.212-.246.212-.47v-.046c0-.579-.14-1.029-.418-1.35-.276-.32-.694-.48-1.256-.48-.582 0-1.038.145-1.369.434-.33.29-.563.598-.697.927l-1.157-.47c.206-.547.482-.973.826-1.278a2.973 2.973 0 011.137-.645c.413-.125.82-.188 1.219-.188.255 0 .548.035.878.106.334.066.656.205.966.416.314.211.574.53.78.956.207.426.31.997.31 1.712v5.936H70.74v-1.22h-.062a2.443 2.443 0 01-1.183 1.196c-.32.157-.711.235-1.173.235zm.186-1.244c.483 0 .889-.107 1.22-.322.334-.215.585-.493.754-.833.172-.34.258-.698.258-1.073V8.379c-.052.07-.165.135-.34.194a5.164 5.164 0 01-.6.146 24.254 24.254 0 01-1.168.176 4.193 4.193 0 00-.888.229 1.517 1.517 0 00-.661.463c-.166.204-.248.481-.248.833 0 .48.156.845.47 1.09.317.243.718.364 1.203.364zm7.62 1.033L73.71 3.898h1.281l1.715 6.897h.083l1.694-6.897h1.302l1.674 6.874h.083l1.715-6.874h1.28l-2.417 9.009h-1.198l-1.736-6.92h-.124l-1.736 6.92h-1.198zm10.332 0V.896h1.22v4.433h.103c.09-.156.213-.355.372-.598.162-.246.392-.465.692-.657.303-.195.713-.293 1.23-.293.668 0 1.257.19 1.766.569.51.38.908.917 1.194 1.613.285.696.428 1.517.428 2.463 0 .954-.142 1.78-.428 2.48-.286.697-.682 1.236-1.189 1.62a2.842 2.842 0 01-1.75.568c-.51 0-.919-.095-1.225-.287a2.365 2.365 0 01-.708-.663 8.993 8.993 0 01-.382-.621h-.145v1.384H86.46zm1.199-4.504c0 .68.088 1.28.263 1.8.176.516.433.92.77 1.214.338.29.75.434 1.24.434.51 0 .935-.153 1.276-.457.344-.31.603-.724.775-1.244a5.476 5.476 0 00.263-1.747c0-.634-.086-1.205-.258-1.713-.169-.512-.425-.917-.77-1.214-.34-.301-.77-.452-1.286-.452-.496 0-.913.143-1.25.428-.338.282-.593.677-.765 1.185-.172.505-.258 1.093-.258 1.766zm10.151 4.715a2.9 2.9 0 01-1.368-.323 2.46 2.46 0 01-.977-.944c-.24-.414-.361-.915-.361-1.501 0-.516.09-.935.268-1.255.18-.325.419-.58.719-.763.3-.184.63-.32.991-.41.365-.094.732-.169 1.1-.223.483-.07.874-.123 1.173-.159.303-.039.524-.103.662-.193.141-.09.211-.246.211-.47v-.046c0-.579-.139-1.029-.418-1.35-.276-.32-.694-.48-1.255-.48-.582 0-1.039.145-1.37.434-.33.29-.562.598-.697.927l-1.157-.47c.207-.547.482-.973.827-1.278a2.971 2.971 0 011.136-.645 4.2 4.2 0 011.22-.188c.254 0 .547.035.877.106.335.066.657.205.967.416.313.211.573.53.78.956.206.426.31.997.31 1.712v5.936h-1.22v-1.22h-.062c-.082.195-.22.405-.413.627-.193.223-.45.413-.77.57-.32.156-.71.234-1.172.234zm.187-1.244c.482 0 .888-.107 1.219-.322.334-.215.585-.493.754-.833.172-.34.258-.698.258-1.073V8.379c-.051.07-.165.135-.34.194a5.166 5.166 0 01-.6.146 24.128 24.128 0 01-1.167.176 4.193 4.193 0 00-.889.229 1.518 1.518 0 00-.661.463c-.165.204-.248.481-.248.833 0 .48.157.845.47 1.09.317.243.718.364 1.204.364zm9.045 1.22c-.744 0-1.385-.199-1.922-.598-.537-.399-.95-.948-1.24-1.648-.289-.7-.434-1.5-.434-2.399 0-.914.148-1.722.445-2.422.299-.704.716-1.253 1.25-1.648.537-.399 1.164-.598 1.88-.598.558 0 1.061.117 1.509.352.447.234.814.563 1.1.985.286.422.463.915.532 1.478h-1.219c-.093-.41-.3-.774-.62-1.09-.317-.321-.744-.482-1.281-.482-.475 0-.892.141-1.25.423-.355.277-.632.67-.832 1.178-.196.505-.295 1.097-.295 1.778 0 .695.097 1.301.29 1.818.196.516.472.916.826 1.202.359.285.779.428 1.261.428.317 0 .604-.063.863-.188a1.81 1.81 0 00.656-.54c.179-.234.306-.515.382-.844h1.219a3.462 3.462 0 01-.511 1.437 2.977 2.977 0 01-1.07 1.009c-.441.246-.954.37-1.539.37zm6.184-3.472l-.02-1.712h.248l3.471-4.012h1.509l-3.699 4.246h-.104l-1.405 1.478zm-1.136 3.285V.896h1.219v12.01h-1.219zm5.042 0l-3.1-4.458.868-.961 3.782 5.419h-1.55zm8.637-6.991l-1.095.352a2.422 2.422 0 00-.305-.604c-.131-.2-.31-.364-.538-.493-.227-.13-.518-.194-.873-.194-.485 0-.89.128-1.214.382-.32.25-.48.569-.48.956 0 .344.11.615.331.815.22.2.564.365 1.033.498l1.178.329c.709.195 1.238.494 1.586.897.347.399.521.913.521 1.543 0 .516-.131.977-.392 1.384a2.69 2.69 0 01-1.085.961c-.465.235-1.006.352-1.622.352-.81 0-1.479-.199-2.01-.598-.53-.399-.866-.981-1.007-1.748l1.157-.328c.11.485.319.848.625 1.09.31.243.715.364 1.214.364.568 0 1.02-.136 1.354-.41.337-.278.506-.61.506-.997 0-.313-.097-.575-.289-.786-.193-.215-.489-.375-.889-.48l-1.322-.353c-.727-.195-1.261-.498-1.602-.909-.337-.414-.506-.932-.506-1.554 0-.508.126-.958.377-1.349a2.649 2.649 0 011.038-.92 3.277 3.277 0 011.498-.335c.786 0 1.402.196 1.85.586.451.391.771.908.961 1.549z" fill="#fff" fill-opacity=".5"/></svg>