<svg width="17" height="17" fill="none" xmlns="http://www.w3.org/2000/svg"><g clip-path="url(#clip0_1065_49756)"><path d="M4.19 13.654l1.477-1.91a1.046 1.046 0 011.357-.263v0a1.046 1.046 0 001.36-.264l1.187-1.548" stroke="#FBFCFF" stroke-linecap="round"/><path d="M8.228 8.85h1.965l.375 1.825" stroke="#FBFCFF" stroke-linecap="round"/><path d="M8.185 3.65C7.111 1.91 6.188.83 6.188.83S2.212 5.49 2.212 9.154v1.053a5.176 5.176 0 005.176 5.175H9.6c2.59 0 4.69-2.1 4.69-4.69 0-2.484-.83-4.897-2.36-6.855l-.41-.526-2.091 2.67s-.195-.633-1.244-2.332z" stroke="url(#paint0_linear_1065_49756)" stroke-linejoin="round"/></g><defs><linearGradient id="paint0_linear_1065_49756" x1="11.948" y1="15.619" x2="3.788" y2="-2.092" gradientUnits="userSpaceOnUse"><stop stop-color="#CC288A"/><stop offset="1" stop-color="#9554E1"/></linearGradient><clipPath id="clip0_1065_49756"><path fill="#fff" transform="translate(.251 .106)" d="M0 0h16v16H0z"/></clipPath></defs></svg>