<svg width="18" height="15" fill="none" xmlns="http://www.w3.org/2000/svg"><path d="M17.267 2.238a6.893 6.893 0 01-2.036.562A3.422 3.422 0 0016.784.836a7.714 7.714 0 01-2.24.867A3.491 3.491 0 0011.974.58a3.534 3.534 0 00-3.539 3.545c0 .28.026.535.102.816a10.03 10.03 0 01-7.28-3.698 3.536 3.536 0 00-.483 1.785c0 1.224.636 2.321 1.578 2.959a3.752 3.752 0 01-1.603-.434v.051a3.553 3.553 0 002.825 3.469 3.843 3.843 0 01-.942.127c-.23 0-.458-.025-.662-.05a3.542 3.542 0 003.31 2.448A7.106 7.106 0 01.9 13.104c-.28 0-.56-.026-.84-.051a10.013 10.013 0 005.422 1.581c6.49 0 10.053-5.407 10.053-10.075V4.1a8.593 8.593 0 001.731-1.862z" fill="#fff" fill-opacity=".48"/></svg>